<svg width="184" height="56" viewBox="0 0 184 56" fill="none" xmlns="http://www.w3.org/2000/svg">
<path d="M14.576 43.592C11.5371 43.592 8.97173 42.9803 6.88 41.7568C4.82773 40.4939 3.2688 38.3232 2.2032 35.2448C1.17707 32.1269 0.664 27.8053 0.664 22.28C0.664 16.7547 1.17707 12.4528 2.2032 9.3744C3.22933 6.25653 4.72907 4.08586 6.7024 2.8624C8.7152 1.59946 11.1424 0.967997 13.984 0.967997C16.0757 0.967997 17.9504 1.0864 19.608 1.3232C21.3051 1.56 22.5877 1.83626 23.456 2.152V5.408H16.352C14.6944 5.408 13.2144 5.90133 11.912 6.888C10.6096 7.8352 9.58347 9.53226 8.8336 11.9792C8.1232 14.3867 7.768 17.8203 7.768 22.28C7.768 26.7003 8.14293 30.1339 8.8928 32.5808C9.64267 35.0277 10.7083 36.7445 12.0896 37.7312C13.4709 38.6784 15.0891 39.152 16.944 39.152H24.048V42.408C23.1797 42.6843 21.8971 42.9408 20.2 43.1776C18.5424 43.4539 16.6677 43.592 14.576 43.592ZM39.4446 43.592C37.2345 43.592 35.3204 43.4933 33.7022 43.296C32.1236 43.1381 30.5844 42.8421 29.0846 42.408V2.152C30.5844 1.71786 32.1236 1.42186 33.7022 1.264C35.3204 1.06666 37.2345 0.967997 39.4446 0.967997C43.9044 0.967997 47.1801 1.95466 49.2718 3.928C51.403 5.86187 52.4686 8.52587 52.4686 11.92C52.4686 13.696 51.9753 15.3931 50.9886 17.0112C50.002 18.6293 48.6206 19.8528 46.8446 20.6816V20.9184C49.2126 21.7472 51.0281 23.0891 52.291 24.944C53.5934 26.7989 54.2446 29.0683 54.2446 31.752C54.2446 35.5803 53.1001 38.5205 50.811 40.5728C48.5614 42.5856 44.7726 43.592 39.4446 43.592ZM36.1886 39.152H39.4446C41.9705 39.152 43.8254 38.5403 45.0094 37.3168C46.2329 36.0539 46.8446 34.1003 46.8446 31.456C46.8446 28.6539 46.2329 26.6213 45.0094 25.3584C43.8254 24.0955 41.9705 23.464 39.4446 23.464H36.1886V39.152ZM36.1886 19.024H38.8526C40.7865 19.024 42.306 18.4517 43.411 17.3072C44.5161 16.1232 45.0686 14.4261 45.0686 12.216C45.0686 10.0059 44.5161 8.32853 43.411 7.184C42.306 6 40.7865 5.408 38.8526 5.408H36.1886V19.024ZM69.3568 43.592C67.6992 43.592 66.16 43.3355 64.7392 42.8224C63.3579 42.3093 62.2528 41.3819 61.424 40.04C60.5952 38.6587 60.1808 36.6853 60.1808 34.12V13.4H67.2848V34.12C67.2848 36.1723 67.7781 37.5733 68.7648 38.3232C69.7515 39.0731 70.8368 39.448 72.0208 39.448C72.7707 39.448 73.4219 39.3296 73.9744 39.0928C74.5664 38.8165 75.0005 38.5403 75.2768 38.264V13.4H82.3808V43H77.3488L76.4608 41.224H76.1648C75.5333 41.816 74.6848 42.3685 73.6192 42.8816C72.5536 43.3552 71.1328 43.592 69.3568 43.592ZM90.0699 43V13.4H95.1019L95.9899 15.768H96.2859C96.9173 15.176 97.7659 14.6432 98.8315 14.1696C99.8971 13.6565 101.318 13.4 103.094 13.4H106.942V18.432H100.43C99.68 18.432 99.0288 18.5504 98.4763 18.7872C97.9237 19.024 97.4896 19.3003 97.1739 19.616V43H90.0699ZM119.409 55.432C117.948 55.432 116.527 55.2939 115.146 55.0176C113.765 54.7808 112.62 54.5243 111.713 54.248V51.288H118.225C120.435 51.288 122.112 50.5973 123.257 49.216C124.441 47.8741 125.033 45.5061 125.033 42.112C124.441 42.5461 123.71 42.9013 122.842 43.1776C121.974 43.4539 121.027 43.592 120.001 43.592C117.83 43.592 115.935 43.0987 114.317 42.112C112.739 41.0859 111.515 39.448 110.647 37.1984C109.779 34.9488 109.345 31.9493 109.345 28.2C109.345 24.4507 109.818 21.4512 110.765 19.2016C111.713 16.952 113.133 15.3339 115.028 14.3472C116.962 13.3211 119.409 12.808 122.369 12.808C124.46 12.808 126.236 12.9659 127.697 13.2816C129.196 13.5579 130.676 13.992 132.137 14.584V40.632C132.137 44.184 131.663 47.0453 130.716 49.216C129.808 51.3867 128.407 52.9653 126.513 53.952C124.658 54.9387 122.29 55.432 119.409 55.432ZM121.777 39.448C122.526 39.448 123.178 39.3296 123.73 39.0928C124.322 38.8165 124.756 38.5403 125.033 38.264V16.952H122.369C121.185 16.952 120.139 17.2677 119.231 17.8992C118.363 18.5307 117.672 19.6752 117.159 21.3328C116.685 22.9509 116.449 25.24 116.449 28.2C116.449 31.16 116.685 33.4491 117.159 35.0672C117.633 36.6853 118.264 37.8299 119.053 38.5008C119.882 39.1323 120.79 39.448 121.777 39.448ZM151.686 43.592C148.648 43.592 146.141 43.0987 144.168 42.112C142.195 41.0859 140.734 39.448 139.787 37.1984C138.84 34.9488 138.366 31.9493 138.366 28.2C138.366 24.4507 138.801 21.4512 139.669 19.2016C140.577 16.952 141.859 15.3339 143.517 14.3472C145.214 13.3211 147.246 12.808 149.614 12.808C151.982 12.808 153.995 13.3211 155.653 14.3472C157.35 15.3339 158.633 16.952 159.501 19.2016C160.409 21.4512 160.862 24.4507 160.862 28.2V30.272H145.47C145.47 33.6661 146.062 36.0539 147.246 37.4352C148.47 38.7771 150.345 39.448 152.87 39.448H159.382V42.408C158.514 42.6843 157.389 42.9408 156.008 43.1776C154.627 43.4539 153.186 43.592 151.686 43.592ZM145.47 26.128H153.758C153.758 23.5627 153.581 21.6091 153.226 20.2672C152.87 18.8859 152.377 17.9387 151.746 17.4256C151.114 16.9125 150.404 16.656 149.614 16.656C148.825 16.656 148.115 16.9125 147.483 17.4256C146.852 17.9387 146.358 18.8859 146.003 20.2672C145.648 21.6091 145.47 23.5627 145.47 26.128ZM167.076 43V13.4H172.108L172.996 15.768H173.292C173.924 15.176 174.772 14.6432 175.838 14.1696C176.903 13.6565 178.324 13.4 180.1 13.4H183.948V18.432H177.436C176.686 18.432 176.035 18.5504 175.483 18.7872C174.93 19.024 174.496 19.3003 174.18 19.616V43H167.076Z" fill="black"/>
</svg>
