<svg width="125" height="70" viewBox="0 0 125 70" fill="none" xmlns="http://www.w3.org/2000/svg">
<path d="M29.3545 17.9456C28.4028 17.6737 27.9496 20.2568 27.1339 21.2991C26.4088 22.2055 25.4119 22.1148 24.0977 22.0695C24.007 19.5771 23.9164 17.4925 23.8258 16.1329C23.7351 14.8641 23.4179 14.4109 22.4662 14.4109C21.5146 14.4109 21.152 14.9094 21.1067 16.1329C20.9255 19.1692 20.7442 25.7402 20.5176 32.4471C18.3424 32.3565 15.8046 31.4502 14.3091 29.5922C12.7684 27.6888 12.1792 22.0242 11.2729 22.2508C10.3665 22.432 10.5931 28.9124 12.7684 31.6767C14.4904 33.852 16.6465 35.364 20 35.5C19.7734 44.1103 21.5616 52.8153 19.5 59C19 60.5 17.0002 60.5 16 61.5C15.5002 62 15 62.5 15 64C15 65.5 17.5 66.5 17.5 66.5C17.5 66.5 20.2362 66.7638 22.5 64.5C24.5 62.5 25.5 61 25.5 55C25.5 43.1199 24.5508 35.8006 24.1883 24.6073C26.3182 24.5166 27.4965 24.1088 28.3575 23.1118C29.3545 22.0242 30.3061 18.2629 29.3545 17.9456Z" fill="#F6F6F6"/>
<path d="M17.2545 22.7946C17.2545 22.7946 14.9434 23.9275 14.9434 26.3293C14.9434 28.7311 17.2545 29.864 17.2545 29.864C17.2545 29.864 19.5657 28.7311 19.5657 26.3293C19.5657 23.9275 17.2545 22.7946 17.2545 22.7946ZM17.9343 8.33837C17.9343 8.33837 15.6231 9.4713 15.6231 11.8731C15.6231 14.2749 17.9343 15.4079 17.9343 15.4079C17.9343 15.4079 20.2455 14.2749 20.2455 11.8731C20.2455 9.4713 17.9343 8.33837 17.9343 8.33837ZM12.3603 16.9033C12.3603 16.9033 14.6714 15.7704 14.6714 13.3686C14.6714 10.9668 12.3603 9.83384 12.3603 9.83384C12.3603 9.83384 10.0491 10.9668 10.0491 13.3686C10.0491 15.7704 12.3603 16.9033 12.3603 16.9033ZM14.5355 9.56193C14.5355 9.56193 16.8467 8.429 16.8467 6.02719C16.8467 3.62538 14.5355 2.49245 14.5355 2.49245C14.5355 2.49245 12.2243 3.62538 12.2243 6.02719C12.2243 8.429 14.5355 9.56193 14.5355 9.56193ZM19.7017 0C19.7017 0 17.3905 1.13293 17.3905 3.53474C17.3905 5.93656 19.7017 7.06949 19.7017 7.06949C19.7017 7.06949 22.0128 5.93656 22.0128 3.53474C22.0128 1.08761 19.7017 0 19.7017 0ZM31.6201 9.65257C31.6201 9.65257 33.9313 8.51964 33.9313 6.11782C33.9313 3.71601 31.6201 2.58308 31.6201 2.58308C31.6201 2.58308 29.3089 3.71601 29.3089 6.11782C29.3089 8.51964 31.6201 9.65257 31.6201 9.65257ZM26.9977 13.1873C26.9977 15.5891 29.3089 16.7221 29.3089 16.7221C29.3089 16.7221 31.6201 15.5891 31.6201 13.1873C31.6201 10.7855 29.3089 9.65257 29.3089 9.65257C29.3089 9.65257 26.9977 10.7855 26.9977 13.1873ZM9.77719 24.1088C9.77719 24.1088 8.64426 21.7976 6.24245 21.7976C3.84063 21.7976 2.7077 24.1088 2.7077 24.1088C2.7077 24.1088 3.84063 26.4199 6.24245 26.4199C8.64426 26.4199 9.77719 24.1088 9.77719 24.1088ZM39.9131 18.4894C37.5113 18.4894 36.3784 20.8006 36.3784 20.8006C36.3784 20.8006 37.5113 23.1118 39.9131 23.1118C42.315 23.1118 43.4479 20.8006 43.4479 20.8006C43.4479 20.8006 42.315 18.4894 39.9131 18.4894ZM29.7168 23.9275C29.7168 23.9275 30.8497 26.2387 33.2515 26.2387C35.6533 26.2387 36.7863 23.9275 36.7863 23.9275C36.7863 23.9275 35.6533 21.6163 33.2515 21.6163C30.8497 21.6163 29.7168 23.9275 29.7168 23.9275ZM18.4328 16.7674C18.4328 16.7674 15.9856 15.9063 14.3089 17.6284C12.5869 19.3505 13.4479 21.7523 13.4479 21.7523C13.4479 21.7523 15.895 22.6133 17.5718 20.8912C19.2938 19.2145 18.4328 16.7674 18.4328 16.7674ZM37.8285 8.79154C37.8285 8.79154 35.3814 7.93051 33.7047 9.65257C31.9826 11.3746 32.8437 13.7764 32.8437 13.7764C32.8437 13.7764 35.2908 14.6375 36.9675 12.9154C38.6896 11.1934 37.8285 8.79154 37.8285 8.79154ZM36.4237 15.2719C36.4237 15.2719 33.9766 14.4109 32.2998 16.1329C30.5778 17.855 31.4388 20.2568 31.4388 20.2568C31.4388 20.2568 33.886 21.1178 35.5627 19.3958C37.2847 17.719 36.4237 15.2719 36.4237 15.2719ZM10.2304 27.4622C10.2304 27.4622 7.78323 26.6012 6.1065 28.3233C4.38444 30.0453 5.24547 32.4471 5.24547 32.4471C5.24547 32.4471 7.6926 33.3082 9.36933 31.5861C11.0914 29.9094 10.2304 27.4622 10.2304 27.4622ZM39.6866 5.89124C41.4086 4.16918 40.5476 1.76737 40.5476 1.76737C40.5476 1.76737 38.1005 0.906344 36.4237 2.6284C34.7017 4.35045 35.5627 6.75227 35.5627 6.75227C35.5627 6.75227 37.9645 7.61329 39.6866 5.89124ZM37.7832 16.9033C37.7832 16.9033 40.2304 17.7643 41.9071 16.0423C43.6292 14.3202 42.7681 11.9184 42.7681 11.9184C42.7681 11.9184 40.321 11.0574 38.6443 12.7795C36.9222 14.5015 37.7832 16.9033 37.7832 16.9033ZM26.2727 25.8761C26.2727 25.8761 25.4116 28.3233 27.1337 30C28.8557 31.7221 31.2576 30.861 31.2576 30.861C31.2576 30.861 32.1186 28.4139 30.3965 26.7372C28.6745 25.0151 26.2727 25.8761 26.2727 25.8761ZM6.42372 15.997C6.42372 15.997 5.56269 18.4441 7.28474 20.1208C9.0068 21.8429 11.4086 20.9819 11.4086 20.9819C11.4086 20.9819 12.2696 18.5347 10.5476 16.858C8.87085 15.136 6.42372 15.997 6.42372 15.997ZM5.20015 20.6193C5.20015 20.6193 6.06118 18.1722 4.33912 16.4955C2.61707 14.7734 0.215257 15.6344 0.215257 15.6344C0.215257 15.6344 -0.64577 18.0816 1.07628 19.7583C2.79834 21.435 5.20015 20.6193 5.20015 20.6193ZM9.05211 14.5015C9.05211 14.5015 9.91314 12.0544 8.19109 10.3776C6.46903 8.65559 4.06722 9.51661 4.06722 9.51661C4.06722 9.51661 3.20619 11.9637 4.92825 13.6405C6.60498 15.3625 9.05211 14.5015 9.05211 14.5015ZM32.8437 27.4622C32.8437 27.4622 31.9826 29.9094 33.7047 31.5861C35.4267 33.3082 37.8285 32.4471 37.8285 32.4471C37.8285 32.4471 38.6896 30 36.9675 28.3233C35.2908 26.6465 32.8437 27.4622 32.8437 27.4622ZM25.2757 8.79154C23.5536 7.06949 21.1518 7.93051 21.1518 7.93051C21.1518 7.93051 20.2908 10.3776 22.0128 12.0544C23.7349 13.7764 26.1367 12.9154 26.1367 12.9154C26.1367 12.9154 26.9977 10.5136 25.2757 8.79154ZM28.0853 7.79456C28.0853 7.79456 28.9464 5.34743 27.2243 3.67069C25.5023 1.94864 23.1005 2.80967 23.1005 2.80967C23.1005 2.80967 22.2394 5.2568 23.9615 6.93354C25.6382 8.65559 28.0853 7.79456 28.0853 7.79456ZM11.182 31.6767C11.182 31.6767 8.87085 32.8097 8.87085 35.2115C8.87085 37.6133 11.182 38.7462 11.182 38.7462C11.182 38.7462 13.4932 37.6133 13.4932 35.2115C13.4932 32.8097 11.182 31.6767 11.182 31.6767Z" fill="#F37608"/>
<path d="M54.144 38.84C54.976 38.84 55.664 39.112 56.208 39.656C56.752 40.2 57.024 40.904 57.024 41.768V62.072C57.024 62.904 56.752 63.608 56.208 64.184C55.664 64.728 54.976 65 54.144 65C53.312 65 52.624 64.728 52.08 64.184C51.536 63.608 51.264 62.904 51.264 62.072V59.72L52.32 60.152C52.32 60.568 52.096 61.08 51.648 61.688C51.2 62.264 50.592 62.84 49.824 63.416C49.056 63.992 48.144 64.488 47.088 64.904C46.064 65.288 44.944 65.48 43.728 65.48C41.52 65.48 39.52 64.92 37.728 63.8C35.936 62.648 34.512 61.08 33.456 59.096C32.432 57.08 31.92 54.776 31.92 52.184C31.92 49.56 32.432 47.256 33.456 45.272C34.512 43.256 35.92 41.688 37.68 40.568C39.44 39.416 41.392 38.84 43.536 38.84C44.912 38.84 46.176 39.048 47.328 39.464C48.48 39.88 49.472 40.408 50.304 41.048C51.168 41.688 51.824 42.344 52.272 43.016C52.752 43.656 52.992 44.2 52.992 44.648L51.264 45.272V41.768C51.264 40.936 51.536 40.248 52.08 39.704C52.624 39.128 53.312 38.84 54.144 38.84ZM44.448 60.2C45.856 60.2 47.088 59.848 48.144 59.144C49.2 58.44 50.016 57.48 50.592 56.264C51.2 55.048 51.504 53.688 51.504 52.184C51.504 50.648 51.2 49.272 50.592 48.056C50.016 46.84 49.2 45.88 48.144 45.176C47.088 44.472 45.856 44.12 44.448 44.12C43.072 44.12 41.856 44.472 40.8 45.176C39.744 45.88 38.912 46.84 38.304 48.056C37.728 49.272 37.44 50.648 37.44 52.184C37.44 53.688 37.728 55.048 38.304 56.264C38.912 57.48 39.744 58.44 40.8 59.144C41.856 59.848 43.072 60.2 44.448 60.2ZM78.4766 38.84C80.7166 38.84 82.7166 39.416 84.4766 40.568C86.2686 41.688 87.6766 43.24 88.7006 45.224C89.7566 47.208 90.2846 49.512 90.2846 52.136C90.2846 54.76 89.7566 57.08 88.7006 59.096C87.6766 61.08 86.2846 62.648 84.5246 63.8C82.7966 64.92 80.8446 65.48 78.6686 65.48C77.3886 65.48 76.1886 65.272 75.0686 64.856C73.9486 64.44 72.9566 63.912 72.0926 63.272C71.2606 62.632 70.6046 61.992 70.1246 61.352C69.6766 60.68 69.4526 60.12 69.4526 59.672L70.9406 59.048V62.552C70.9406 63.384 70.6686 64.088 70.1246 64.664C69.5806 65.208 68.8926 65.48 68.0606 65.48C67.2286 65.48 66.5406 65.208 65.9966 64.664C65.4526 64.12 65.1806 63.416 65.1806 62.552V32.408C65.1806 31.576 65.4526 30.888 65.9966 30.344C66.5406 29.768 67.2286 29.48 68.0606 29.48C68.8926 29.48 69.5806 29.768 70.1246 30.344C70.6686 30.888 70.9406 31.576 70.9406 32.408V44.6L70.1246 44.168C70.1246 43.752 70.3486 43.256 70.7966 42.68C71.2446 42.072 71.8526 41.48 72.6206 40.904C73.3886 40.296 74.2686 39.8 75.2606 39.416C76.2846 39.032 77.3566 38.84 78.4766 38.84ZM77.7566 44.12C76.3486 44.12 75.1166 44.472 74.0606 45.176C73.0046 45.88 72.1726 46.84 71.5646 48.056C70.9886 49.24 70.7006 50.6 70.7006 52.136C70.7006 53.64 70.9886 55.016 71.5646 56.264C72.1726 57.48 73.0046 58.44 74.0606 59.144C75.1166 59.848 76.3486 60.2 77.7566 60.2C79.1646 60.2 80.3806 59.848 81.4046 59.144C82.4606 58.44 83.2766 57.48 83.8526 56.264C84.4606 55.016 84.7646 53.64 84.7646 52.136C84.7646 50.6 84.4606 49.24 83.8526 48.056C83.2766 46.84 82.4606 45.88 81.4046 45.176C80.3806 44.472 79.1646 44.12 77.7566 44.12ZM118.265 38.84C119.097 38.84 119.785 39.112 120.329 39.656C120.873 40.2 121.145 40.904 121.145 41.768V62.072C121.145 62.904 120.873 63.608 120.329 64.184C119.785 64.728 119.097 65 118.265 65C117.433 65 116.745 64.728 116.201 64.184C115.657 63.608 115.385 62.904 115.385 62.072V59.72L116.441 60.152C116.441 60.568 116.217 61.08 115.769 61.688C115.321 62.264 114.713 62.84 113.945 63.416C113.177 63.992 112.265 64.488 111.209 64.904C110.185 65.288 109.065 65.48 107.849 65.48C105.641 65.48 103.641 64.92 101.849 63.8C100.057 62.648 98.6332 61.08 97.5772 59.096C96.5532 57.08 96.0412 54.776 96.0412 52.184C96.0412 49.56 96.5532 47.256 97.5772 45.272C98.6332 43.256 100.041 41.688 101.801 40.568C103.561 39.416 105.513 38.84 107.657 38.84C109.033 38.84 110.297 39.048 111.449 39.464C112.601 39.88 113.593 40.408 114.425 41.048C115.289 41.688 115.945 42.344 116.393 43.016C116.873 43.656 117.113 44.2 117.113 44.648L115.385 45.272V41.768C115.385 40.936 115.657 40.248 116.201 39.704C116.745 39.128 117.433 38.84 118.265 38.84ZM108.569 60.2C109.977 60.2 111.209 59.848 112.265 59.144C113.321 58.44 114.137 57.48 114.713 56.264C115.321 55.048 115.625 53.688 115.625 52.184C115.625 50.648 115.321 49.272 114.713 48.056C114.137 46.84 113.321 45.88 112.265 45.176C111.209 44.472 109.977 44.12 108.569 44.12C107.193 44.12 105.977 44.472 104.921 45.176C103.865 45.88 103.033 46.84 102.425 48.056C101.849 49.272 101.561 50.648 101.561 52.184C101.561 53.688 101.849 55.048 102.425 56.264C103.033 57.48 103.865 58.44 104.921 59.144C105.977 59.848 107.193 60.2 108.569 60.2Z" fill="#F6F6F6"/>
</svg>
